<mxfile host="app.diagrams.net" modified="2023-06-23T14:35:28.477Z" agent="Mozilla/5.0 (Windows NT 10.0; Win64; x64) AppleWebKit/537.36 (KHTML, like Gecko) Chrome/114.0.0.0 Safari/537.36" etag="N4bhIjgv2HKmtAXjG7_-" version="21.3.8" type="device">
  <diagram name="PÃ¡gina-1" id="nF6iOulG578xqtXxONi5">
    <mxGraphModel dx="2226" dy="745" grid="1" gridSize="10" guides="1" tooltips="1" connect="1" arrows="1" fold="1" page="1" pageScale="1" pageWidth="827" pageHeight="1169" math="0" shadow="0">
      <root>
        <mxCell id="0" />
        <mxCell id="1" parent="0" />
        <mxCell id="fUDfj7uWCVOUMnSfH1Hj-198" style="edgeStyle=orthogonalEdgeStyle;rounded=0;orthogonalLoop=1;jettySize=auto;html=1;entryX=0.658;entryY=-0.004;entryDx=0;entryDy=0;dashed=1;entryPerimeter=0;" parent="1" source="fUDfj7uWCVOUMnSfH1Hj-196" target="fUDfj7uWCVOUMnSfH1Hj-132" edge="1">
          <mxGeometry relative="1" as="geometry" />
        </mxCell>
        <mxCell id="fUDfj7uWCVOUMnSfH1Hj-30" style="edgeStyle=orthogonalEdgeStyle;rounded=0;orthogonalLoop=1;jettySize=auto;html=1;entryX=0;entryY=0.5;entryDx=0;entryDy=0;" parent="1" source="fUDfj7uWCVOUMnSfH1Hj-2" target="fUDfj7uWCVOUMnSfH1Hj-4" edge="1">
          <mxGeometry relative="1" as="geometry" />
        </mxCell>
        <mxCell id="fUDfj7uWCVOUMnSfH1Hj-2" value="WDI" style="ellipse;" parent="1" vertex="1">
          <mxGeometry x="101" y="341" width="80" height="30" as="geometry" />
        </mxCell>
        <mxCell id="fUDfj7uWCVOUMnSfH1Hj-35" value="" style="edgeStyle=orthogonalEdgeStyle;rounded=0;orthogonalLoop=1;jettySize=auto;html=1;" parent="1" source="fUDfj7uWCVOUMnSfH1Hj-4" edge="1">
          <mxGeometry relative="1" as="geometry">
            <mxPoint x="414" y="356.0000000000001" as="targetPoint" />
          </mxGeometry>
        </mxCell>
        <mxCell id="fUDfj7uWCVOUMnSfH1Hj-4" value="02_clean_data.do" style="fillColor=#d5e8d4;strokeColor=#82b366;" parent="1" vertex="1">
          <mxGeometry x="260" y="341" width="130" height="30" as="geometry" />
        </mxCell>
        <mxCell id="fUDfj7uWCVOUMnSfH1Hj-9" value="" style="curved=1;noEdgeStyle=1;orthogonal=1;" parent="1" edge="1">
          <mxGeometry relative="1" as="geometry">
            <mxPoint x="540" y="385.0000000000001" as="sourcePoint" />
            <Array as="points">
              <mxPoint x="552" y="385" />
              <mxPoint x="628" y="385" />
            </Array>
          </mxGeometry>
        </mxCell>
        <mxCell id="fUDfj7uWCVOUMnSfH1Hj-11" value="" style="curved=1;noEdgeStyle=1;orthogonal=1;" parent="1" edge="1">
          <mxGeometry relative="1" as="geometry">
            <mxPoint x="720" y="385.0000000000001" as="sourcePoint" />
            <Array as="points">
              <mxPoint x="732" y="385" />
              <mxPoint x="808" y="385" />
            </Array>
          </mxGeometry>
        </mxCell>
        <mxCell id="fUDfj7uWCVOUMnSfH1Hj-19" style="edgeStyle=orthogonalEdgeStyle;rounded=0;orthogonalLoop=1;jettySize=auto;html=1;entryX=0;entryY=0.5;entryDx=0;entryDy=0;" parent="1" source="fUDfj7uWCVOUMnSfH1Hj-12" target="fUDfj7uWCVOUMnSfH1Hj-4" edge="1">
          <mxGeometry relative="1" as="geometry">
            <Array as="points">
              <mxPoint x="230" y="296" />
              <mxPoint x="230" y="356" />
            </Array>
          </mxGeometry>
        </mxCell>
        <mxCell id="fUDfj7uWCVOUMnSfH1Hj-12" value="01_UNICEF_API.py" style="fillColor=#d5e8d4;strokeColor=#82b366;" parent="1" vertex="1">
          <mxGeometry x="81" y="281" width="120" height="30" as="geometry" />
        </mxCell>
        <mxCell id="fUDfj7uWCVOUMnSfH1Hj-20" style="edgeStyle=orthogonalEdgeStyle;rounded=0;orthogonalLoop=1;jettySize=auto;html=1;entryX=0;entryY=0.5;entryDx=0;entryDy=0;" parent="1" source="fUDfj7uWCVOUMnSfH1Hj-13" target="fUDfj7uWCVOUMnSfH1Hj-4" edge="1">
          <mxGeometry relative="1" as="geometry">
            <Array as="points">
              <mxPoint x="230" y="396" />
              <mxPoint x="230" y="356" />
            </Array>
          </mxGeometry>
        </mxCell>
        <mxCell id="fUDfj7uWCVOUMnSfH1Hj-13" value="WHO" style="ellipse;" parent="1" vertex="1">
          <mxGeometry x="101" y="381" width="80" height="30" as="geometry" />
        </mxCell>
        <mxCell id="fUDfj7uWCVOUMnSfH1Hj-21" style="edgeStyle=orthogonalEdgeStyle;rounded=0;orthogonalLoop=1;jettySize=auto;html=1;entryX=0;entryY=0.5;entryDx=0;entryDy=0;" parent="1" source="fUDfj7uWCVOUMnSfH1Hj-14" target="fUDfj7uWCVOUMnSfH1Hj-4" edge="1">
          <mxGeometry relative="1" as="geometry">
            <Array as="points">
              <mxPoint x="230" y="436" />
              <mxPoint x="230" y="356" />
            </Array>
          </mxGeometry>
        </mxCell>
        <mxCell id="fUDfj7uWCVOUMnSfH1Hj-14" value="FAO" style="ellipse;" parent="1" vertex="1">
          <mxGeometry x="101" y="421" width="80" height="30" as="geometry" />
        </mxCell>
        <mxCell id="fUDfj7uWCVOUMnSfH1Hj-22" style="edgeStyle=orthogonalEdgeStyle;rounded=0;orthogonalLoop=1;jettySize=auto;html=1;entryX=0;entryY=0.5;entryDx=0;entryDy=0;" parent="1" source="fUDfj7uWCVOUMnSfH1Hj-15" target="fUDfj7uWCVOUMnSfH1Hj-4" edge="1">
          <mxGeometry relative="1" as="geometry">
            <Array as="points">
              <mxPoint x="230" y="476" />
              <mxPoint x="230" y="356" />
            </Array>
          </mxGeometry>
        </mxCell>
        <mxCell id="fUDfj7uWCVOUMnSfH1Hj-15" value="UNESCO" style="ellipse;" parent="1" vertex="1">
          <mxGeometry x="101" y="461" width="80" height="30" as="geometry" />
        </mxCell>
        <mxCell id="fUDfj7uWCVOUMnSfH1Hj-24" style="edgeStyle=orthogonalEdgeStyle;rounded=0;orthogonalLoop=1;jettySize=auto;html=1;entryX=0;entryY=0.5;entryDx=0;entryDy=0;" parent="1" source="fUDfj7uWCVOUMnSfH1Hj-17" target="fUDfj7uWCVOUMnSfH1Hj-4" edge="1">
          <mxGeometry relative="1" as="geometry">
            <Array as="points">
              <mxPoint x="230" y="516" />
              <mxPoint x="230" y="356" />
            </Array>
          </mxGeometry>
        </mxCell>
        <mxCell id="fUDfj7uWCVOUMnSfH1Hj-17" value="UNHCR" style="ellipse;" parent="1" vertex="1">
          <mxGeometry x="101" y="501" width="80" height="30" as="geometry" />
        </mxCell>
        <mxCell id="fUDfj7uWCVOUMnSfH1Hj-23" style="edgeStyle=orthogonalEdgeStyle;rounded=0;orthogonalLoop=1;jettySize=auto;html=1;entryX=0;entryY=0.5;entryDx=0;entryDy=0;" parent="1" source="fUDfj7uWCVOUMnSfH1Hj-18" target="fUDfj7uWCVOUMnSfH1Hj-4" edge="1">
          <mxGeometry relative="1" as="geometry">
            <Array as="points">
              <mxPoint x="230" y="556" />
              <mxPoint x="230" y="356" />
            </Array>
          </mxGeometry>
        </mxCell>
        <mxCell id="fUDfj7uWCVOUMnSfH1Hj-18" value="ILO" style="ellipse;" parent="1" vertex="1">
          <mxGeometry x="101" y="540.5" width="80" height="30" as="geometry" />
        </mxCell>
        <mxCell id="fUDfj7uWCVOUMnSfH1Hj-25" style="edgeStyle=orthogonalEdgeStyle;rounded=0;orthogonalLoop=1;jettySize=auto;html=1;exitX=0.5;exitY=1;exitDx=0;exitDy=0;" parent="1" source="fUDfj7uWCVOUMnSfH1Hj-12" target="fUDfj7uWCVOUMnSfH1Hj-12" edge="1">
          <mxGeometry relative="1" as="geometry" />
        </mxCell>
        <mxCell id="fUDfj7uWCVOUMnSfH1Hj-26" value="" style="strokeWidth=1;html=1;shape=mxgraph.flowchart.annotation_1;align=left;pointerEvents=1;" parent="1" vertex="1">
          <mxGeometry x="61" y="351" width="9" height="249" as="geometry" />
        </mxCell>
        <mxCell id="fUDfj7uWCVOUMnSfH1Hj-27" value="" style="strokeWidth=1;html=1;shape=mxgraph.flowchart.annotation_1;align=left;pointerEvents=1;" parent="1" vertex="1">
          <mxGeometry x="61" y="281" width="9" height="30" as="geometry" />
        </mxCell>
        <mxCell id="fUDfj7uWCVOUMnSfH1Hj-28" value="Data accessed via API" style="text;html=1;strokeColor=none;fillColor=none;align=right;verticalAlign=middle;whiteSpace=wrap;rounded=0;" parent="1" vertex="1">
          <mxGeometry x="-40" y="281" width="94" height="30" as="geometry" />
        </mxCell>
        <mxCell id="fUDfj7uWCVOUMnSfH1Hj-29" value="Direct Download from Portals" style="text;html=1;strokeColor=none;fillColor=none;align=right;verticalAlign=middle;whiteSpace=wrap;rounded=0;" parent="1" vertex="1">
          <mxGeometry x="-46" y="431" width="100" height="30" as="geometry" />
        </mxCell>
        <mxCell id="fUDfj7uWCVOUMnSfH1Hj-31" value="Compiles every data source into one database" style="text;html=1;strokeColor=none;fillColor=none;align=center;verticalAlign=middle;whiteSpace=wrap;rounded=0;" parent="1" vertex="1">
          <mxGeometry x="275" y="391" width="100" height="30" as="geometry" />
        </mxCell>
        <mxCell id="fUDfj7uWCVOUMnSfH1Hj-39" value="" style="edgeStyle=orthogonalEdgeStyle;rounded=0;orthogonalLoop=1;jettySize=auto;html=1;" parent="1" source="fUDfj7uWCVOUMnSfH1Hj-36" target="fUDfj7uWCVOUMnSfH1Hj-38" edge="1">
          <mxGeometry relative="1" as="geometry" />
        </mxCell>
        <mxCell id="fUDfj7uWCVOUMnSfH1Hj-36" value="03_clean_metadata.do" style="fillColor=#dae8fc;strokeColor=#6C8EBF;" parent="1" vertex="1">
          <mxGeometry x="414" y="341" width="146" height="30" as="geometry" />
        </mxCell>
        <mxCell id="fUDfj7uWCVOUMnSfH1Hj-37" value="Adds indicators and country metadata to the main database" style="text;html=1;strokeColor=none;fillColor=none;align=center;verticalAlign=middle;whiteSpace=wrap;rounded=0;" parent="1" vertex="1">
          <mxGeometry x="430.5" y="391" width="113" height="30" as="geometry" />
        </mxCell>
        <mxCell id="fUDfj7uWCVOUMnSfH1Hj-51" value="" style="edgeStyle=orthogonalEdgeStyle;rounded=0;orthogonalLoop=1;jettySize=auto;html=1;" parent="1" source="fUDfj7uWCVOUMnSfH1Hj-38" target="fUDfj7uWCVOUMnSfH1Hj-41" edge="1">
          <mxGeometry relative="1" as="geometry" />
        </mxCell>
        <mxCell id="fUDfj7uWCVOUMnSfH1Hj-38" value="complete_series_wmd" style="ellipse;" parent="1" vertex="1">
          <mxGeometry x="595" y="336" width="145" height="40" as="geometry" />
        </mxCell>
        <mxCell id="fUDfj7uWCVOUMnSfH1Hj-40" value="" style="endArrow=none;html=1;rounded=0;" parent="1" edge="1">
          <mxGeometry width="50" height="50" relative="1" as="geometry">
            <mxPoint x="-20" y="630" as="sourcePoint" />
            <mxPoint x="860" y="630" as="targetPoint" />
          </mxGeometry>
        </mxCell>
        <mxCell id="fUDfj7uWCVOUMnSfH1Hj-52" style="edgeStyle=orthogonalEdgeStyle;rounded=0;orthogonalLoop=1;jettySize=auto;html=1;" parent="1" source="fUDfj7uWCVOUMnSfH1Hj-41" edge="1">
          <mxGeometry relative="1" as="geometry">
            <mxPoint x="668" y="491" as="targetPoint" />
          </mxGeometry>
        </mxCell>
        <mxCell id="fUDfj7uWCVOUMnSfH1Hj-41" value="04_missing_data.do" style="fillColor=#d5e8d4;strokeColor=#82b366;" parent="1" vertex="1">
          <mxGeometry x="595" y="421" width="146" height="30" as="geometry" />
        </mxCell>
        <mxCell id="fUDfj7uWCVOUMnSfH1Hj-44" value="Reports data scarcity by country, region and income group" style="text;html=1;strokeColor=none;fillColor=none;align=left;verticalAlign=middle;whiteSpace=wrap;rounded=0;" parent="1" vertex="1">
          <mxGeometry x="755" y="421" width="115" height="30" as="geometry" />
        </mxCell>
        <mxCell id="fUDfj7uWCVOUMnSfH1Hj-45" value="data_scarcity_reg_inc" style="shape=image;html=1;verticalAlign=top;verticalLabelPosition=bottom;labelBackgroundColor=#ffffff;imageAspect=0;aspect=fixed;image=https://cdn3.iconfinder.com/data/icons/document-icons-2/30/647702-excel-128.png" parent="1" vertex="1">
          <mxGeometry x="648" y="496" width="40" height="40" as="geometry" />
        </mxCell>
        <mxCell id="fUDfj7uWCVOUMnSfH1Hj-49" value="&lt;b&gt;Part 1: Creating Data Portal Dataset&lt;/b&gt;" style="text;html=1;align=center;verticalAlign=middle;resizable=0;points=[];autosize=1;strokeColor=none;fillColor=none;" parent="1" vertex="1">
          <mxGeometry x="288" y="630" width="230" height="30" as="geometry" />
        </mxCell>
        <mxCell id="fUDfj7uWCVOUMnSfH1Hj-54" value="" style="endArrow=none;html=1;rounded=0;exitX=1;exitY=0.5;exitDx=0;exitDy=0;" parent="1" source="fUDfj7uWCVOUMnSfH1Hj-38" edge="1">
          <mxGeometry width="50" height="50" relative="1" as="geometry">
            <mxPoint x="790" y="361" as="sourcePoint" />
            <mxPoint x="840" y="356" as="targetPoint" />
          </mxGeometry>
        </mxCell>
        <mxCell id="fUDfj7uWCVOUMnSfH1Hj-55" value="" style="endArrow=none;dashed=1;html=1;dashPattern=1 3;strokeWidth=2;rounded=0;" parent="1" edge="1">
          <mxGeometry width="50" height="50" relative="1" as="geometry">
            <mxPoint x="848" y="357" as="sourcePoint" />
            <mxPoint x="868" y="357" as="targetPoint" />
          </mxGeometry>
        </mxCell>
        <mxCell id="fUDfj7uWCVOUMnSfH1Hj-94" value="" style="edgeStyle=orthogonalEdgeStyle;rounded=0;orthogonalLoop=1;jettySize=auto;html=1;" parent="1" source="fUDfj7uWCVOUMnSfH1Hj-80" target="fUDfj7uWCVOUMnSfH1Hj-93" edge="1">
          <mxGeometry relative="1" as="geometry" />
        </mxCell>
        <mxCell id="fUDfj7uWCVOUMnSfH1Hj-80" value="complete_series_wmd" style="ellipse;" parent="1" vertex="1">
          <mxGeometry x="-13.5" y="796" width="140" height="40" as="geometry" />
        </mxCell>
        <mxCell id="fUDfj7uWCVOUMnSfH1Hj-85" value="&lt;b&gt;Part 2: Generating two-page Briefs&lt;/b&gt;" style="text;html=1;align=center;verticalAlign=middle;resizable=0;points=[];autosize=1;strokeColor=none;fillColor=none;" parent="1" vertex="1">
          <mxGeometry x="292" y="1113" width="220" height="30" as="geometry" />
        </mxCell>
        <mxCell id="fUDfj7uWCVOUMnSfH1Hj-89" value="" style="endArrow=none;html=1;rounded=0;" parent="1" edge="1">
          <mxGeometry width="50" height="50" relative="1" as="geometry">
            <mxPoint x="-21" y="1112.31" as="sourcePoint" />
            <mxPoint x="859" y="1112.31" as="targetPoint" />
          </mxGeometry>
        </mxCell>
        <mxCell id="fUDfj7uWCVOUMnSfH1Hj-90" value="" style="endArrow=none;html=1;rounded=0;entryX=0;entryY=0.5;entryDx=0;entryDy=0;" parent="1" edge="1">
          <mxGeometry width="50" height="50" relative="1" as="geometry">
            <mxPoint x="-33.5" y="815.93" as="sourcePoint" />
            <mxPoint x="-13.5" y="815.93" as="targetPoint" />
          </mxGeometry>
        </mxCell>
        <mxCell id="fUDfj7uWCVOUMnSfH1Hj-92" value="" style="endArrow=none;dashed=1;html=1;dashPattern=1 3;strokeWidth=2;rounded=0;" parent="1" edge="1">
          <mxGeometry width="50" height="50" relative="1" as="geometry">
            <mxPoint x="-57" y="816" as="sourcePoint" />
            <mxPoint x="-37" y="816" as="targetPoint" />
          </mxGeometry>
        </mxCell>
        <mxCell id="fUDfj7uWCVOUMnSfH1Hj-100" value="" style="edgeStyle=orthogonalEdgeStyle;rounded=0;orthogonalLoop=1;jettySize=auto;html=1;" parent="1" source="fUDfj7uWCVOUMnSfH1Hj-93" target="fUDfj7uWCVOUMnSfH1Hj-99" edge="1">
          <mxGeometry relative="1" as="geometry" />
        </mxCell>
        <mxCell id="fUDfj7uWCVOUMnSfH1Hj-93" value="05_brief_dataset.do" style="fillColor=#d5e8d4;strokeColor=#82b366;" parent="1" vertex="1">
          <mxGeometry x="-17" y="954" width="147" height="30" as="geometry" />
        </mxCell>
        <mxCell id="fUDfj7uWCVOUMnSfH1Hj-95" value="&lt;div style=&quot;text-align: left;&quot;&gt;&lt;span style=&quot;background-color: initial;&quot;&gt;Creates dataset for briefs:&lt;/span&gt;&lt;/div&gt;&lt;div style=&quot;text-align: left;&quot;&gt;&lt;span style=&quot;background-color: initial;&quot;&gt;(1) Selects latest and ~5 years prior value for each county and indicator;&lt;/span&gt;&lt;/div&gt;&lt;div style=&quot;text-align: left;&quot;&gt;(2) Reshapes data to wide format.&lt;/div&gt;" style="text;html=1;strokeColor=none;fillColor=none;align=center;verticalAlign=middle;whiteSpace=wrap;rounded=0;" parent="1" vertex="1">
          <mxGeometry x="-13" y="1018" width="143" height="30" as="geometry" />
        </mxCell>
        <mxCell id="fUDfj7uWCVOUMnSfH1Hj-106" value="" style="edgeStyle=orthogonalEdgeStyle;rounded=0;orthogonalLoop=1;jettySize=auto;html=1;" parent="1" source="fUDfj7uWCVOUMnSfH1Hj-99" target="fUDfj7uWCVOUMnSfH1Hj-105" edge="1">
          <mxGeometry relative="1" as="geometry" />
        </mxCell>
        <mxCell id="fUDfj7uWCVOUMnSfH1Hj-99" value="06_indicators_by_country.do" style="fillColor=#d5e8d4;strokeColor=#82b366;" parent="1" vertex="1">
          <mxGeometry x="160" y="954" width="171" height="30" as="geometry" />
        </mxCell>
        <mxCell id="fUDfj7uWCVOUMnSfH1Hj-101" value="&lt;div style=&quot;text-align: left;&quot;&gt;&lt;span style=&quot;background-color: initial;&quot;&gt;Selects indicators to be displayed in the briefs for each country based on indicators ranking.&lt;/span&gt;&lt;/div&gt;" style="text;html=1;strokeColor=none;fillColor=none;align=center;verticalAlign=middle;whiteSpace=wrap;rounded=0;" parent="1" vertex="1">
          <mxGeometry x="165.75" y="1006" width="165.25" height="30" as="geometry" />
        </mxCell>
        <mxCell id="fUDfj7uWCVOUMnSfH1Hj-113" style="edgeStyle=orthogonalEdgeStyle;rounded=0;orthogonalLoop=1;jettySize=auto;html=1;entryX=0;entryY=0.5;entryDx=0;entryDy=0;" parent="1" source="fUDfj7uWCVOUMnSfH1Hj-105" target="fUDfj7uWCVOUMnSfH1Hj-111" edge="1">
          <mxGeometry relative="1" as="geometry">
            <Array as="points">
              <mxPoint x="310" y="815" />
              <mxPoint x="310" y="770" />
            </Array>
          </mxGeometry>
        </mxCell>
        <mxCell id="fUDfj7uWCVOUMnSfH1Hj-114" style="edgeStyle=orthogonalEdgeStyle;rounded=0;orthogonalLoop=1;jettySize=auto;html=1;entryX=0;entryY=0.5;entryDx=0;entryDy=0;" parent="1" source="fUDfj7uWCVOUMnSfH1Hj-105" target="fUDfj7uWCVOUMnSfH1Hj-102" edge="1">
          <mxGeometry relative="1" as="geometry">
            <Array as="points">
              <mxPoint x="310" y="815" />
              <mxPoint x="310" y="852" />
            </Array>
          </mxGeometry>
        </mxCell>
        <mxCell id="fUDfj7uWCVOUMnSfH1Hj-105" value="data_briefs" style="ellipse;" parent="1" vertex="1">
          <mxGeometry x="197" y="795" width="96" height="40" as="geometry" />
        </mxCell>
        <mxCell id="fUDfj7uWCVOUMnSfH1Hj-109" value="" style="group" parent="1" vertex="1" connectable="0">
          <mxGeometry x="331" y="837" width="262" height="240" as="geometry" />
        </mxCell>
        <mxCell id="fUDfj7uWCVOUMnSfH1Hj-102" value="07_graphs.do" style="fillColor=#d5e8d4;strokeColor=#82b366;" parent="fUDfj7uWCVOUMnSfH1Hj-109" vertex="1">
          <mxGeometry width="130" height="30" as="geometry" />
        </mxCell>
        <mxCell id="fUDfj7uWCVOUMnSfH1Hj-104" value="&lt;div style=&quot;text-align: left;&quot;&gt;&lt;span style=&quot;background-color: initial;&quot;&gt;Generates charts for every country brief.&lt;/span&gt;&lt;/div&gt;" style="text;html=1;strokeColor=none;fillColor=none;align=center;verticalAlign=middle;whiteSpace=wrap;rounded=0;" parent="fUDfj7uWCVOUMnSfH1Hj-109" vertex="1">
          <mxGeometry y="33" width="120" height="30" as="geometry" />
        </mxCell>
        <mxCell id="fUDfj7uWCVOUMnSfH1Hj-127" style="edgeStyle=orthogonalEdgeStyle;rounded=0;orthogonalLoop=1;jettySize=auto;html=1;" parent="fUDfj7uWCVOUMnSfH1Hj-109" edge="1">
          <mxGeometry relative="1" as="geometry">
            <mxPoint x="156" y="14.860000000000014" as="targetPoint" />
            <mxPoint x="130" y="14.860000000000014" as="sourcePoint" />
            <Array as="points">
              <mxPoint x="150" y="14.860000000000014" />
            </Array>
          </mxGeometry>
        </mxCell>
        <mxCell id="fUDfj7uWCVOUMnSfH1Hj-110" value="" style="group" parent="1" vertex="1" connectable="0">
          <mxGeometry x="331" y="755" width="130" height="63" as="geometry" />
        </mxCell>
        <mxCell id="fUDfj7uWCVOUMnSfH1Hj-120" style="edgeStyle=orthogonalEdgeStyle;rounded=0;orthogonalLoop=1;jettySize=auto;html=1;" parent="fUDfj7uWCVOUMnSfH1Hj-110" source="fUDfj7uWCVOUMnSfH1Hj-111" edge="1">
          <mxGeometry relative="1" as="geometry">
            <mxPoint x="156" y="15" as="targetPoint" />
            <Array as="points">
              <mxPoint x="150" y="15" />
            </Array>
          </mxGeometry>
        </mxCell>
        <mxCell id="fUDfj7uWCVOUMnSfH1Hj-111" value="08_text for graphs.do" style="fillColor=#dae8fc;strokeColor=#6c8ebf;" parent="fUDfj7uWCVOUMnSfH1Hj-110" vertex="1">
          <mxGeometry width="130" height="30" as="geometry" />
        </mxCell>
        <mxCell id="fUDfj7uWCVOUMnSfH1Hj-112" value="&lt;div style=&quot;text-align: left;&quot;&gt;&lt;span style=&quot;background-color: initial;&quot;&gt;Generates descriptions for each of the graphs.&lt;/span&gt;&lt;/div&gt;" style="text;html=1;strokeColor=none;fillColor=none;align=center;verticalAlign=middle;whiteSpace=wrap;rounded=0;" parent="fUDfj7uWCVOUMnSfH1Hj-110" vertex="1">
          <mxGeometry y="33" width="130" height="30" as="geometry" />
        </mxCell>
        <mxCell id="fUDfj7uWCVOUMnSfH1Hj-131" style="edgeStyle=orthogonalEdgeStyle;rounded=0;orthogonalLoop=1;jettySize=auto;html=1;entryX=0;entryY=0.5;entryDx=0;entryDy=0;" parent="1" target="fUDfj7uWCVOUMnSfH1Hj-129" edge="1">
          <mxGeometry relative="1" as="geometry">
            <mxPoint x="541" y="854" as="sourcePoint" />
            <Array as="points">
              <mxPoint x="561" y="854" />
              <mxPoint x="561" y="811" />
            </Array>
          </mxGeometry>
        </mxCell>
        <mxCell id="fUDfj7uWCVOUMnSfH1Hj-121" value="Graphs" style="sketch=0;outlineConnect=0;fontColor=#232F3E;gradientColor=none;fillColor=#232F3D;strokeColor=none;dashed=0;verticalLabelPosition=bottom;verticalAlign=top;align=center;html=1;fontSize=12;fontStyle=0;aspect=fixed;pointerEvents=1;shape=mxgraph.aws4.folder;" parent="1" vertex="1">
          <mxGeometry x="495" y="836" width="36.26" height="33" as="geometry" />
        </mxCell>
        <mxCell id="fUDfj7uWCVOUMnSfH1Hj-130" style="edgeStyle=orthogonalEdgeStyle;rounded=0;orthogonalLoop=1;jettySize=auto;html=1;entryX=0;entryY=0.5;entryDx=0;entryDy=0;" parent="1" target="fUDfj7uWCVOUMnSfH1Hj-129" edge="1">
          <mxGeometry relative="1" as="geometry">
            <mxPoint x="541" y="771" as="sourcePoint" />
            <Array as="points">
              <mxPoint x="561" y="771" />
              <mxPoint x="561" y="811" />
            </Array>
          </mxGeometry>
        </mxCell>
        <mxCell id="fUDfj7uWCVOUMnSfH1Hj-122" value="ordered_text" style="shape=image;verticalLabelPosition=bottom;labelBackgroundColor=default;verticalAlign=top;aspect=fixed;imageAspect=0;image=https://cdn.icon-icons.com/icons2/2107/PNG/512/file_type_stata_icon_130148.png;" parent="1" vertex="1">
          <mxGeometry x="494" y="750.5" width="39" height="39" as="geometry" />
        </mxCell>
        <mxCell id="fUDfj7uWCVOUMnSfH1Hj-133" value="" style="edgeStyle=orthogonalEdgeStyle;rounded=0;orthogonalLoop=1;jettySize=auto;html=1;" parent="1" source="fUDfj7uWCVOUMnSfH1Hj-129" target="fUDfj7uWCVOUMnSfH1Hj-132" edge="1">
          <mxGeometry relative="1" as="geometry" />
        </mxCell>
        <mxCell id="fUDfj7uWCVOUMnSfH1Hj-129" value="09_HC_2page_Func.R" style="fillColor=#d5e8d4;strokeColor=#82b366;" parent="1" vertex="1">
          <mxGeometry x="586" y="795" width="141" height="30" as="geometry" />
        </mxCell>
        <mxCell id="fUDfj7uWCVOUMnSfH1Hj-135" value="" style="edgeStyle=orthogonalEdgeStyle;rounded=0;orthogonalLoop=1;jettySize=auto;html=1;" parent="1" source="fUDfj7uWCVOUMnSfH1Hj-132" target="fUDfj7uWCVOUMnSfH1Hj-134" edge="1">
          <mxGeometry relative="1" as="geometry" />
        </mxCell>
        <mxCell id="fUDfj7uWCVOUMnSfH1Hj-132" value="10_Run_Briefs.R" style="fillColor=#d5e8d4;strokeColor=#82b366;" parent="1" vertex="1">
          <mxGeometry x="586" y="870" width="141" height="30" as="geometry" />
        </mxCell>
        <mxCell id="fUDfj7uWCVOUMnSfH1Hj-194" style="edgeStyle=orthogonalEdgeStyle;rounded=0;orthogonalLoop=1;jettySize=auto;html=1;" parent="1" source="fUDfj7uWCVOUMnSfH1Hj-134" edge="1">
          <mxGeometry relative="1" as="geometry">
            <mxPoint x="656.5" y="1020" as="targetPoint" />
          </mxGeometry>
        </mxCell>
        <mxCell id="fUDfj7uWCVOUMnSfH1Hj-134" value="11_add_header.py" style="fillColor=#f8cecc;strokeColor=#b85450;" parent="1" vertex="1">
          <mxGeometry x="586" y="943" width="141" height="30" as="geometry" />
        </mxCell>
        <mxCell id="fUDfj7uWCVOUMnSfH1Hj-136" value="Briefs" style="sketch=0;outlineConnect=0;fontColor=#232F3E;gradientColor=none;fillColor=#232F3D;strokeColor=none;dashed=0;verticalLabelPosition=bottom;verticalAlign=top;align=center;html=1;fontSize=12;fontStyle=0;aspect=fixed;pointerEvents=1;shape=mxgraph.aws4.folder;" parent="1" vertex="1">
          <mxGeometry x="638.37" y="1031" width="36.26" height="33" as="geometry" />
        </mxCell>
        <mxCell id="fUDfj7uWCVOUMnSfH1Hj-141" value="&lt;div style=&quot;text-align: left;&quot;&gt;Sets everything up for running the briefs generator.&lt;/div&gt;" style="text;html=1;strokeColor=none;fillColor=none;align=center;verticalAlign=middle;whiteSpace=wrap;rounded=0;" parent="1" vertex="1">
          <mxGeometry x="737" y="796" width="109" height="30" as="geometry" />
        </mxCell>
        <mxCell id="fUDfj7uWCVOUMnSfH1Hj-142" value="&lt;div style=&quot;text-align: left;&quot;&gt;&lt;span style=&quot;background-color: initial;&quot;&gt;Creates two-page brief for each country.&lt;/span&gt;&lt;/div&gt;" style="text;html=1;strokeColor=none;fillColor=none;align=center;verticalAlign=middle;whiteSpace=wrap;rounded=0;" parent="1" vertex="1">
          <mxGeometry x="737" y="870" width="119" height="30" as="geometry" />
        </mxCell>
        <mxCell id="fUDfj7uWCVOUMnSfH1Hj-143" value="&lt;div style=&quot;text-align: left;&quot;&gt;&lt;span style=&quot;background-color: initial;&quot;&gt;Adds header and footer to each pdf.&lt;/span&gt;&lt;/div&gt;" style="text;html=1;strokeColor=none;fillColor=none;align=center;verticalAlign=middle;whiteSpace=wrap;rounded=0;" parent="1" vertex="1">
          <mxGeometry x="737" y="944" width="120" height="30" as="geometry" />
        </mxCell>
        <mxCell id="fUDfj7uWCVOUMnSfH1Hj-181" value="" style="group" parent="1" vertex="1" connectable="0">
          <mxGeometry x="9" y="663" width="810" height="31" as="geometry" />
        </mxCell>
        <mxCell id="fUDfj7uWCVOUMnSfH1Hj-180" value="" style="rounded=0;whiteSpace=wrap;html=1;fillColor=#F7F7F7;fontColor=#333333;strokeColor=#000000;strokeWidth=0.5;" parent="fUDfj7uWCVOUMnSfH1Hj-181" vertex="1">
          <mxGeometry width="810" height="30" as="geometry" />
        </mxCell>
        <mxCell id="fUDfj7uWCVOUMnSfH1Hj-144" value="" style="ellipse;" parent="fUDfj7uWCVOUMnSfH1Hj-181" vertex="1">
          <mxGeometry x="11" y="10" width="19" height="10" as="geometry" />
        </mxCell>
        <mxCell id="fUDfj7uWCVOUMnSfH1Hj-145" value="" style="" parent="fUDfj7uWCVOUMnSfH1Hj-181" vertex="1">
          <mxGeometry x="100" y="11" width="20" height="9" as="geometry" />
        </mxCell>
        <mxCell id="fUDfj7uWCVOUMnSfH1Hj-146" value="Database" style="text;html=1;strokeColor=none;fillColor=none;align=center;verticalAlign=middle;whiteSpace=wrap;rounded=0;" parent="fUDfj7uWCVOUMnSfH1Hj-181" vertex="1">
          <mxGeometry x="29.5" y="1" width="60" height="30" as="geometry" />
        </mxCell>
        <mxCell id="fUDfj7uWCVOUMnSfH1Hj-147" value="Scripts (&lt;font color=&quot;#82b366&quot;&gt;implemented&lt;/font&gt;,&lt;font color=&quot;#82b366&quot;&gt; &lt;/font&gt;&lt;font color=&quot;#6c8ebf&quot;&gt;implemented with minor bugs&lt;/font&gt;,&lt;font color=&quot;#82b366&quot;&gt; &lt;/font&gt;&lt;font color=&quot;#b85450&quot;&gt;not implemented&lt;/font&gt;)&amp;nbsp;" style="text;html=1;strokeColor=none;fillColor=none;align=left;verticalAlign=middle;whiteSpace=wrap;rounded=0;" parent="fUDfj7uWCVOUMnSfH1Hj-181" vertex="1">
          <mxGeometry x="122" y="1" width="404" height="30" as="geometry" />
        </mxCell>
        <mxCell id="fUDfj7uWCVOUMnSfH1Hj-149" value="" style="shape=image;html=1;verticalAlign=top;verticalLabelPosition=bottom;labelBackgroundColor=#ffffff;imageAspect=0;aspect=fixed;image=https://cdn3.iconfinder.com/data/icons/document-icons-2/30/647702-excel-128.png" parent="fUDfj7uWCVOUMnSfH1Hj-181" vertex="1">
          <mxGeometry x="513" y="7.5" width="15" height="15" as="geometry" />
        </mxCell>
        <mxCell id="fUDfj7uWCVOUMnSfH1Hj-150" value="MS Excel file" style="text;html=1;strokeColor=none;fillColor=none;align=center;verticalAlign=middle;whiteSpace=wrap;rounded=0;" parent="fUDfj7uWCVOUMnSfH1Hj-181" vertex="1">
          <mxGeometry x="527" y="1" width="80" height="30" as="geometry" />
        </mxCell>
        <mxCell id="fUDfj7uWCVOUMnSfH1Hj-151" value="" style="shape=image;verticalLabelPosition=bottom;labelBackgroundColor=default;verticalAlign=top;aspect=fixed;imageAspect=0;image=https://cdn.icon-icons.com/icons2/2107/PNG/512/file_type_stata_icon_130148.png;" parent="fUDfj7uWCVOUMnSfH1Hj-181" vertex="1">
          <mxGeometry x="618" y="7.5" width="15" height="15" as="geometry" />
        </mxCell>
        <mxCell id="fUDfj7uWCVOUMnSfH1Hj-152" value="Stata database" style="text;html=1;strokeColor=none;fillColor=none;align=center;verticalAlign=middle;whiteSpace=wrap;rounded=0;" parent="fUDfj7uWCVOUMnSfH1Hj-181" vertex="1">
          <mxGeometry x="629" y="1" width="95" height="30" as="geometry" />
        </mxCell>
        <mxCell id="fUDfj7uWCVOUMnSfH1Hj-153" value="" style="sketch=0;outlineConnect=0;fontColor=#232F3E;gradientColor=none;fillColor=#232F3D;strokeColor=none;dashed=0;verticalLabelPosition=bottom;verticalAlign=top;align=center;html=1;fontSize=12;fontStyle=0;aspect=fixed;pointerEvents=1;shape=mxgraph.aws4.folder;" parent="fUDfj7uWCVOUMnSfH1Hj-181" vertex="1">
          <mxGeometry x="737" y="8" width="15.38" height="14" as="geometry" />
        </mxCell>
        <mxCell id="fUDfj7uWCVOUMnSfH1Hj-154" value="Folder" style="text;html=1;strokeColor=none;fillColor=none;align=center;verticalAlign=middle;whiteSpace=wrap;rounded=0;" parent="fUDfj7uWCVOUMnSfH1Hj-181" vertex="1">
          <mxGeometry x="750.38" y="1" width="50.38" height="30" as="geometry" />
        </mxCell>
        <mxCell id="fUDfj7uWCVOUMnSfH1Hj-182" value="" style="group" parent="1" vertex="1" connectable="0">
          <mxGeometry x="9" y="1169" width="810" height="31" as="geometry" />
        </mxCell>
        <mxCell id="fUDfj7uWCVOUMnSfH1Hj-195" value="" style="group" parent="fUDfj7uWCVOUMnSfH1Hj-182" vertex="1" connectable="0">
          <mxGeometry y="-12" width="810" height="31" as="geometry" />
        </mxCell>
        <mxCell id="fUDfj7uWCVOUMnSfH1Hj-183" value="" style="rounded=0;whiteSpace=wrap;html=1;fillColor=#F7F7F7;fontColor=#333333;strokeColor=#000000;strokeWidth=0.5;" parent="fUDfj7uWCVOUMnSfH1Hj-195" vertex="1">
          <mxGeometry width="810" height="30" as="geometry" />
        </mxCell>
        <mxCell id="fUDfj7uWCVOUMnSfH1Hj-184" value="" style="ellipse;" parent="fUDfj7uWCVOUMnSfH1Hj-195" vertex="1">
          <mxGeometry x="11" y="10" width="19" height="10" as="geometry" />
        </mxCell>
        <mxCell id="fUDfj7uWCVOUMnSfH1Hj-185" value="" style="" parent="fUDfj7uWCVOUMnSfH1Hj-195" vertex="1">
          <mxGeometry x="100" y="11" width="20" height="9" as="geometry" />
        </mxCell>
        <mxCell id="fUDfj7uWCVOUMnSfH1Hj-186" value="Database" style="text;html=1;strokeColor=none;fillColor=none;align=center;verticalAlign=middle;whiteSpace=wrap;rounded=0;" parent="fUDfj7uWCVOUMnSfH1Hj-195" vertex="1">
          <mxGeometry x="29.5" y="1" width="60" height="30" as="geometry" />
        </mxCell>
        <mxCell id="fUDfj7uWCVOUMnSfH1Hj-187" value="Scripts (&lt;font color=&quot;#82b366&quot;&gt;implemented&lt;/font&gt;,&lt;font color=&quot;#82b366&quot;&gt; &lt;/font&gt;&lt;font color=&quot;#6c8ebf&quot;&gt;implemented with minor bugs&lt;/font&gt;,&lt;font color=&quot;#82b366&quot;&gt; &lt;/font&gt;&lt;font color=&quot;#b85450&quot;&gt;not implemented&lt;/font&gt;)&amp;nbsp;" style="text;html=1;strokeColor=none;fillColor=none;align=left;verticalAlign=middle;whiteSpace=wrap;rounded=0;" parent="fUDfj7uWCVOUMnSfH1Hj-195" vertex="1">
          <mxGeometry x="122" y="1" width="404" height="30" as="geometry" />
        </mxCell>
        <mxCell id="fUDfj7uWCVOUMnSfH1Hj-188" value="" style="shape=image;html=1;verticalAlign=top;verticalLabelPosition=bottom;labelBackgroundColor=#ffffff;imageAspect=0;aspect=fixed;image=https://cdn3.iconfinder.com/data/icons/document-icons-2/30/647702-excel-128.png" parent="fUDfj7uWCVOUMnSfH1Hj-195" vertex="1">
          <mxGeometry x="513" y="7.5" width="15" height="15" as="geometry" />
        </mxCell>
        <mxCell id="fUDfj7uWCVOUMnSfH1Hj-189" value="MS Excel file" style="text;html=1;strokeColor=none;fillColor=none;align=center;verticalAlign=middle;whiteSpace=wrap;rounded=0;" parent="fUDfj7uWCVOUMnSfH1Hj-195" vertex="1">
          <mxGeometry x="527" y="1" width="80" height="30" as="geometry" />
        </mxCell>
        <mxCell id="fUDfj7uWCVOUMnSfH1Hj-190" value="" style="shape=image;verticalLabelPosition=bottom;labelBackgroundColor=default;verticalAlign=top;aspect=fixed;imageAspect=0;image=https://cdn.icon-icons.com/icons2/2107/PNG/512/file_type_stata_icon_130148.png;" parent="fUDfj7uWCVOUMnSfH1Hj-195" vertex="1">
          <mxGeometry x="618" y="7.5" width="15" height="15" as="geometry" />
        </mxCell>
        <mxCell id="fUDfj7uWCVOUMnSfH1Hj-191" value="Stata database" style="text;html=1;strokeColor=none;fillColor=none;align=center;verticalAlign=middle;whiteSpace=wrap;rounded=0;" parent="fUDfj7uWCVOUMnSfH1Hj-195" vertex="1">
          <mxGeometry x="629" y="1" width="95" height="30" as="geometry" />
        </mxCell>
        <mxCell id="fUDfj7uWCVOUMnSfH1Hj-192" value="" style="sketch=0;outlineConnect=0;fontColor=#232F3E;gradientColor=none;fillColor=#232F3D;strokeColor=none;dashed=0;verticalLabelPosition=bottom;verticalAlign=top;align=center;html=1;fontSize=12;fontStyle=0;aspect=fixed;pointerEvents=1;shape=mxgraph.aws4.folder;" parent="fUDfj7uWCVOUMnSfH1Hj-195" vertex="1">
          <mxGeometry x="737" y="8" width="15.38" height="14" as="geometry" />
        </mxCell>
        <mxCell id="fUDfj7uWCVOUMnSfH1Hj-193" value="Folder" style="text;html=1;strokeColor=none;fillColor=none;align=center;verticalAlign=middle;whiteSpace=wrap;rounded=0;" parent="fUDfj7uWCVOUMnSfH1Hj-195" vertex="1">
          <mxGeometry x="750.38" y="1" width="50.38" height="30" as="geometry" />
        </mxCell>
        <mxCell id="fUDfj7uWCVOUMnSfH1Hj-196" value="AM_2023_HC.Rmd" style="fillColor=#d5e8d4;strokeColor=#82b366;" parent="1" vertex="1">
          <mxGeometry x="618" y="732" width="121" height="30" as="geometry" />
        </mxCell>
        <mxCell id="fUDfj7uWCVOUMnSfH1Hj-197" value="&lt;div style=&quot;text-align: left;&quot;&gt;RMarkdown containing Brief design in LATEX&lt;/div&gt;" style="text;html=1;strokeColor=none;fillColor=none;align=center;verticalAlign=middle;whiteSpace=wrap;rounded=0;" parent="1" vertex="1">
          <mxGeometry x="745" y="732" width="130" height="30" as="geometry" />
        </mxCell>
        <mxCell id="fUDfj7uWCVOUMnSfH1Hj-201" style="edgeStyle=orthogonalEdgeStyle;rounded=0;orthogonalLoop=1;jettySize=auto;html=1;entryX=0;entryY=0.5;entryDx=0;entryDy=0;" parent="1" source="fUDfj7uWCVOUMnSfH1Hj-200" target="fUDfj7uWCVOUMnSfH1Hj-4" edge="1">
          <mxGeometry relative="1" as="geometry">
            <Array as="points">
              <mxPoint x="230" y="595" />
              <mxPoint x="230" y="356" />
            </Array>
          </mxGeometry>
        </mxCell>
        <mxCell id="fUDfj7uWCVOUMnSfH1Hj-200" value="UIS" style="ellipse;" parent="1" vertex="1">
          <mxGeometry x="101" y="580" width="80" height="30" as="geometry" />
        </mxCell>
      </root>
    </mxGraphModel>
  </diagram>
</mxfile>
